<svg width="353" height="97" viewBox="0 0 353 97" fill="none" xmlns="http://www.w3.org/2000/svg">
<path d="M100.2 53C101 52.6 101.9 52.3 102.8 52C103.7 51.8 104.5 51.6 105.4 51.4C106.2 51.3 107.1 51.2 107.8 51.2C108.6 51.2 109.3 51.2 109.9 51.2C112.2 51.2 114.2 51.6 115.7 52.4C117.2 53.2 118.4 54.3 119.3 55.6C120.2 57 120.8 58.6 121.1 60.4C121.4 62.2 121.6 64.2 121.6 66.3V66.6C121.6 69.1 121.4 71.4 121.1 73.5C120.8 75.6 120.2 77.4 119.3 78.9C118.4 80.4 117.3 81.6 115.7 82.4C114.2 83.2 112.2 83.7 109.9 83.7C108.7 83.7 107.3 83.7 105.9 83.6C104.5 83.5 103.1 83.4 101.8 83.3C100.5 83.2 99.2 82.9 97.9 82.7C96.7 82.4 95.6 82.1 94.6 81.7C93.7 81.3 92.9 80.8 92.4 80.2C91.8 79.6 91.6 78.9 91.6 78.1V40.8C91.6 40.2 91.8 39.7 92.2 39.3C92.6 38.9 93.1 38.6 93.7 38.4C94.3 38.2 94.9 38.1 95.6 38C96.3 37.9 96.9 37.9 97.5 37.9C97.9 37.9 98.3 37.9 98.6 38C98.9 38.1 99.2 38.2 99.4 38.3C99.6 38.4 99.8 38.7 99.9 38.9C100 39.1 100.1 39.5 100.1 39.9V53H100.2ZM107.6 58.4C106.7 58.5 105.8 58.6 105 58.7C104.2 58.8 103.4 59 102.7 59.2C102 59.4 101.4 59.7 101 60C100.6 60.3 100.3 60.6 100.3 61V74.5C100.3 74.7 100.4 75 100.6 75.2C100.8 75.4 101.2 75.6 101.7 75.8C102.2 76 103 76.1 104 76.2C105 76.3 106.2 76.4 107.7 76.4C108.9 76.4 109.8 76.2 110.5 75.9C111.2 75.6 111.8 75 112.2 74.3C112.6 73.6 112.8 72.7 112.9 71.7C113 70.7 113 69.4 113 68L112.9 64.4C112.9 63 112.7 61.9 112.6 61.1C112.4 60.3 112.1 59.6 111.7 59.2C111.3 58.8 110.8 58.5 110.1 58.4C109.3 58.4 108.5 58.3 107.6 58.4Z" fill="#C59F64"/>
<path d="M125 40.8C125 40.3 125.1 39.9 125.4 39.6C125.6 39.3 126 39.1 126.4 38.9C126.8 38.7 127.3 38.6 127.8 38.6C128.3 38.6 128.8 38.5 129.4 38.5C130 38.5 130.5 38.5 131 38.6C131.5 38.7 132 38.8 132.4 38.9C132.8 39.1 133.1 39.3 133.4 39.6C133.6 39.9 133.7 40.3 133.7 40.8V44.9C133.7 45.4 133.6 45.8 133.3 46.1C133.1 46.4 132.7 46.6 132.3 46.8C131.9 47 131.4 47.1 130.9 47.1C130.4 47.1 129.9 47.2 129.3 47.2C128.7 47.2 128.2 47.2 127.7 47.1C127.2 47 126.7 46.9 126.3 46.8C125.9 46.6 125.6 46.4 125.3 46.1C125.1 45.8 125 45.4 125 44.9V40.8ZM133.5 81.4C133.5 81.9 133.4 82.3 133.1 82.6C132.9 82.9 132.5 83.1 132.1 83.3C131.7 83.5 131.2 83.6 130.7 83.6C130.2 83.6 129.7 83.7 129.1 83.7C128.5 83.7 128 83.7 127.5 83.6C127 83.5 126.5 83.4 126.1 83.3C125.7 83.1 125.4 82.9 125.1 82.6C124.9 82.3 124.8 81.9 124.8 81.4V53.5C124.8 53 124.9 52.6 125.2 52.3C125.4 52 125.8 51.8 126.2 51.6C126.6 51.4 127.1 51.3 127.6 51.3C128.1 51.3 128.6 51.2 129.2 51.2C129.8 51.2 130.3 51.2 130.8 51.3C131.3 51.4 131.8 51.5 132.2 51.6C132.6 51.8 132.9 52 133.2 52.3C133.4 52.6 133.5 53 133.5 53.5V81.4Z" fill="#C59F64"/>
<path d="M152.5 83.7C150.2 83.7 148.3 83.5 146.7 83.1C145.1 82.7 143.7 82.1 142.6 81.4C141.5 80.7 140.6 79.8 139.9 78.8C139.2 77.8 138.7 76.7 138.3 75.5C137.9 74.3 137.7 73 137.6 71.7C137.5 70.4 137.4 69 137.4 67.5V67.4C137.4 66 137.5 64.6 137.6 63.2C137.7 61.8 138 60.6 138.3 59.4C138.6 58.2 139.2 57.1 139.9 56.1C140.6 55.1 141.5 54.2 142.6 53.5C143.7 52.8 145.1 52.2 146.7 51.8C148.3 51.4 150.3 51.2 152.5 51.2H152.7C155 51.2 156.9 51.4 158.5 51.8C160.1 52.2 161.5 52.8 162.6 53.5C163.7 54.2 164.6 55.1 165.3 56.1C166 57.1 166.5 58.2 166.9 59.4C167.3 60.6 167.5 61.9 167.6 63.2C167.7 64.6 167.8 65.9 167.8 67.4V67.5C167.8 68.9 167.7 70.3 167.6 71.7C167.5 73.1 167.2 74.3 166.9 75.5C166.5 76.7 166 77.8 165.3 78.8C164.6 79.8 163.7 80.7 162.6 81.4C161.5 82.1 160.1 82.7 158.5 83.1C156.9 83.5 154.9 83.7 152.7 83.7H152.5ZM152.8 76.7C154.3 76.7 155.5 76.5 156.4 76.1C157.3 75.7 157.9 75.1 158.3 74.4C158.7 73.7 159 72.8 159.1 71.7C159.2 70.6 159.3 69.4 159.3 68V66.7C159.3 65.3 159.2 64.1 159.1 63.1C159 62 158.7 61.1 158.3 60.4C157.9 59.7 157.2 59.1 156.4 58.7C155.5 58.3 154.3 58.1 152.8 58.1H152.4C150.9 58.1 149.7 58.3 148.8 58.7C147.9 59.1 147.3 59.7 146.9 60.4C146.5 61.1 146.2 62 146.1 63.1C146 64.2 145.9 65.4 145.9 66.7V68C145.9 69.4 146 70.6 146.1 71.7C146.2 72.8 146.5 73.7 146.9 74.4C147.3 75.1 148 75.7 148.8 76.1C149.7 76.5 150.9 76.7 152.4 76.7H152.8Z" fill="#C59F64"/>
<path d="M189.9 83.7C189.3 83.7 188.6 83.7 187.8 83.7C187 83.7 186.2 83.6 185.4 83.6C184.6 83.5 183.7 83.4 182.8 83.2C181.9 83 181.1 82.8 180.2 82.4V95C180.2 95.4 180.1 95.8 180 96C179.9 96.2 179.7 96.5 179.5 96.6C179.3 96.7 179 96.8 178.7 96.9C178.4 97 178 97 177.6 97C177.1 97 176.4 97 175.7 96.9C175 96.8 174.4 96.7 173.8 96.5C173.2 96.3 172.7 96 172.3 95.6C171.9 95.2 171.7 94.7 171.7 94.1V57.5C171.7 56.7 172 56 172.5 55.4C173 54.8 173.8 54.2 174.7 53.8C175.6 53.3 176.7 52.9 178 52.6C179.2 52.3 180.5 52 181.9 51.8C183.3 51.6 184.6 51.5 186 51.4C187.4 51.3 188.7 51.3 190 51.3C192.4 51.3 194.3 51.7 195.8 52.6C197.3 53.5 198.5 54.6 199.4 56.1C200.3 57.6 200.8 59.4 201.2 61.5C201.6 63.6 201.7 65.9 201.7 68.4V68.7C201.7 70.8 201.5 72.8 201.2 74.6C200.9 76.4 200.3 78 199.4 79.4C198.5 80.8 197.3 81.8 195.8 82.6C194.2 83.3 192.3 83.7 189.9 83.7ZM180.3 74.4C180.3 74.8 180.6 75.1 181 75.4C181.4 75.7 182 75.8 182.7 75.9C183.4 76 184.2 76.1 185 76.2C185.9 76.3 186.7 76.4 187.6 76.4C188.6 76.5 189.4 76.5 190 76.4C190.7 76.3 191.2 76 191.6 75.6C192 75.2 192.3 74.5 192.5 73.7C192.7 72.9 192.8 71.8 192.8 70.4L192.9 66.8C192.9 65.4 192.9 64.2 192.8 63.1C192.7 62.1 192.5 61.2 192.1 60.5C191.7 59.8 191.2 59.3 190.5 58.9C189.8 58.6 188.8 58.4 187.7 58.4C186.2 58.4 184.9 58.5 184 58.7C183.1 58.9 182.3 59.1 181.7 59.4C181.2 59.7 180.8 59.9 180.6 60.2C180.4 60.5 180.3 60.8 180.3 61V74.4Z" fill="#C59F64"/>
<path d="M225.4 82.7C224.8 82.8 224.1 82.9 223.5 83C222.8 83.1 222.1 83.2 221.3 83.3C220.5 83.4 219.7 83.5 218.8 83.5C217.9 83.6 216.9 83.6 215.8 83.6C213.2 83.6 211.2 83.2 209.6 82.4C208.1 81.6 206.9 80.5 206.1 79.2C205.3 77.8 204.8 76.2 204.5 74.4C204.3 72.6 204.1 70.6 204.1 68.5V68.2C204.1 65.7 204.3 63.4 204.6 61.3C204.9 59.2 205.5 57.4 206.4 55.9C207.3 54.4 208.4 53.2 209.9 52.4C211.4 51.6 213.3 51.1 215.7 51.1C216.9 51.1 218.3 51.1 219.7 51.2C221.1 51.3 222.5 51.5 223.8 51.7C225.1 51.9 226.4 52.3 227.7 52.7C229 53.1 230 53.7 231 54.4C231.9 55.1 232.7 55.9 233.2 56.9C233.7 57.9 234 59.1 234 60.4V80.6C234 81.2 233.8 81.7 233.4 82.1C233 82.5 232.5 82.8 231.9 83C231.3 83.2 230.6 83.3 229.9 83.4C229.2 83.5 228.6 83.5 228.1 83.5L225.4 82.7ZM225.4 63.3C225.4 62.5 225.3 61.8 225.1 61.2C224.9 60.6 224.5 60.1 224 59.7C223.5 59.3 222.7 59 221.8 58.8C220.8 58.6 219.6 58.5 218.1 58.5C216.9 58.5 216 58.7 215.3 59C214.6 59.3 214.1 59.9 213.7 60.6C213.3 61.3 213.1 62.2 213 63.2C212.9 64.2 212.8 65.5 212.8 66.9V70.5C212.8 71.6 212.9 72.5 213 73.2C213.1 74 213.4 74.6 213.7 75.1C214 75.6 214.6 76 215.3 76.2C216 76.4 216.9 76.5 218.1 76.5C218.9 76.5 219.6 76.5 220.3 76.4C221 76.3 221.7 76.3 222.3 76.1C222.9 76 223.5 75.9 223.9 75.7C224.4 75.6 224.8 75.4 225 75.3C225.1 75.3 225.2 75.2 225.2 75.2C225.3 75.2 225.3 75.1 225.3 75.1V63.3H225.4Z" fill="#C59F64"/>
<path d="M246.7 60.9C246.7 61.4 247 61.8 247.5 62.1C248 62.4 248.7 62.7 249.6 62.9C250.5 63.1 251.5 63.3 252.6 63.5C253.7 63.7 254.8 63.9 256 64.2C257.2 64.5 258.3 64.8 259.4 65.3C260.5 65.7 261.5 66.3 262.4 67C263.3 67.7 264 68.6 264.5 69.6C265 70.6 265.3 71.9 265.3 73.4C265.3 74 265.2 74.7 265.1 75.5C265 76.3 264.8 77 264.4 77.8C264.1 78.6 263.6 79.3 263 80C262.4 80.7 261.6 81.3 260.7 81.9C259.7 82.4 258.5 82.9 257.1 83.2C255.7 83.5 254 83.7 252.1 83.7C250.4 83.7 248.8 83.6 247.1 83.5C245.4 83.4 243.9 83.1 242.5 82.6C241.1 82.2 240 81.6 239.2 80.8C238.3 80 237.9 79 237.9 77.6C237.9 77 238.1 76.4 238.5 75.9C238.9 75.4 239.5 75.1 240.3 75.1C240.6 75.1 241.2 75.2 242 75.3C242.8 75.5 243.8 75.6 244.8 75.8C245.9 76 247 76.2 248.2 76.3C249.4 76.4 250.5 76.5 251.6 76.5C252.3 76.5 252.9 76.5 253.5 76.4C254.1 76.3 254.6 76.2 255.1 76C255.6 75.8 255.9 75.5 256.2 75.2C256.5 74.9 256.6 74.5 256.6 74C256.6 73.4 256.3 72.9 255.8 72.5C255.3 72.1 254.6 71.8 253.7 71.5C252.8 71.2 251.8 71 250.7 70.8C249.6 70.6 248.4 70.3 247.3 70C246.1 69.7 245 69.4 243.9 68.9C242.8 68.5 241.8 67.9 240.9 67.2C240 66.5 239.3 65.7 238.8 64.7C238.3 63.7 238 62.5 238 61C238 59.4 238.3 58 238.9 56.7C239.5 55.5 240.4 54.4 241.6 53.6C242.8 52.8 244.1 52.1 245.7 51.7C247.3 51.3 249 51.1 250.9 51.1C251.2 51.1 251.8 51.1 252.5 51.1C253.2 51.1 254.1 51.2 255 51.3C255.9 51.4 256.9 51.6 257.9 51.8C258.9 52 259.8 52.4 260.7 52.8C261.6 53.2 262.3 53.8 262.8 54.5C263.4 55.2 263.7 56 263.8 57C263.8 57.4 263.8 57.7 263.7 58.1C263.6 58.4 263.5 58.8 263.3 59C263.1 59.3 262.8 59.5 262.5 59.7C262.2 59.9 261.7 60 261.3 60C260.7 60 260 59.9 259.2 59.7C258.4 59.5 257.4 59.4 256.5 59.2C255.5 59 254.5 58.8 253.5 58.7C252.5 58.5 251.5 58.4 250.6 58.4C249.4 58.4 248.5 58.6 247.8 59C247 59.3 246.7 60 246.7 60.9Z" fill="#C59F64"/>
<path d="M275.6 60.9C275.6 61.4 275.9 61.8 276.4 62.1C276.9 62.4 277.6 62.7 278.5 62.9C279.4 63.1 280.4 63.3 281.5 63.5C282.6 63.7 283.7 63.9 284.9 64.2C286.1 64.5 287.2 64.8 288.3 65.3C289.4 65.7 290.4 66.3 291.3 67C292.2 67.7 292.9 68.6 293.4 69.6C293.9 70.6 294.2 71.9 294.2 73.4C294.2 74 294.1 74.7 294 75.5C293.9 76.3 293.7 77 293.3 77.8C293 78.6 292.5 79.3 291.9 80C291.3 80.7 290.5 81.3 289.6 81.9C288.6 82.4 287.4 82.9 286 83.2C284.6 83.5 282.9 83.7 281 83.7C279.3 83.7 277.7 83.6 276 83.5C274.3 83.4 272.8 83.1 271.4 82.6C270 82.2 268.9 81.6 268.1 80.8C267.2 80 266.8 79 266.8 77.6C266.8 77 267 76.4 267.4 75.9C267.8 75.4 268.4 75.1 269.2 75.1C269.5 75.1 270.1 75.2 270.9 75.3C271.7 75.5 272.7 75.6 273.7 75.8C274.8 76 275.9 76.2 277.1 76.3C278.3 76.4 279.4 76.5 280.5 76.5C281.2 76.5 281.8 76.5 282.4 76.4C283 76.3 283.5 76.2 284 76C284.5 75.8 284.8 75.5 285.1 75.2C285.4 74.9 285.5 74.5 285.5 74C285.5 73.4 285.2 72.9 284.7 72.5C284.2 72.1 283.5 71.8 282.6 71.5C281.7 71.2 280.7 71 279.6 70.8C278.5 70.6 277.3 70.3 276.2 70C275 69.7 273.9 69.4 272.8 68.9C271.7 68.5 270.7 67.9 269.8 67.2C268.9 66.5 268.2 65.7 267.7 64.7C267.2 63.7 266.9 62.5 266.9 61C266.9 59.4 267.2 58 267.8 56.7C268.4 55.5 269.3 54.4 270.5 53.6C271.7 52.8 273 52.1 274.6 51.7C276.2 51.3 277.9 51.1 279.8 51.1C280.1 51.1 280.7 51.1 281.4 51.1C282.1 51.1 283 51.2 283.9 51.3C284.8 51.4 285.8 51.6 286.8 51.8C287.8 52 288.7 52.4 289.6 52.8C290.5 53.2 291.2 53.8 291.7 54.5C292.3 55.2 292.6 56 292.7 57C292.7 57.4 292.7 57.7 292.6 58.1C292.5 58.4 292.4 58.8 292.2 59C292 59.3 291.7 59.5 291.4 59.7C291.1 59.9 290.6 60 290.2 60C289.6 60 288.9 59.9 288.1 59.7C287.3 59.5 286.3 59.4 285.4 59.2C284.4 59 283.4 58.8 282.4 58.7C281.4 58.5 280.4 58.4 279.5 58.4C278.3 58.4 277.4 58.6 276.7 59C276 59.3 275.6 60 275.6 60.9Z" fill="#C59F64"/>
<path d="M310.2 40.8C310.2 40.3 310.3 39.9 310.6 39.6C310.8 39.3 311.2 39.1 311.6 38.9C312 38.7 312.5 38.6 313 38.6C313.5 38.6 314 38.5 314.6 38.5C315.2 38.5 315.7 38.5 316.2 38.6C316.7 38.7 317.2 38.8 317.6 38.9C318 39.1 318.3 39.3 318.6 39.6C318.8 39.9 318.9 40.3 318.9 40.8V44.9C318.9 45.4 318.8 45.8 318.5 46.1C318.3 46.4 317.9 46.6 317.5 46.8C317.1 47 316.6 47.1 316.1 47.1C315.6 47.1 315.1 47.2 314.5 47.2C313.9 47.2 313.4 47.2 312.9 47.1C312.4 47 311.9 46.9 311.5 46.8C311.1 46.6 310.8 46.4 310.5 46.1C310.3 45.8 310.2 45.4 310.2 44.9V40.8ZM318.7 81.4C318.7 81.9 318.6 82.3 318.3 82.6C318.1 82.9 317.7 83.1 317.3 83.3C316.9 83.5 316.4 83.6 315.9 83.6C315.4 83.6 314.9 83.7 314.3 83.7C313.7 83.7 313.2 83.7 312.7 83.6C312.2 83.5 311.7 83.4 311.3 83.3C310.9 83.1 310.6 82.9 310.3 82.6C310.1 82.3 310 81.9 310 81.4V53.5C310 53 310.1 52.6 310.4 52.3C310.6 52 311 51.8 311.4 51.6C311.8 51.4 312.3 51.3 312.8 51.3C313.3 51.3 313.8 51.2 314.4 51.2C315 51.2 315.5 51.2 316 51.3C316.5 51.4 317 51.5 317.4 51.6C317.8 51.8 318.1 52 318.4 52.3C318.6 52.6 318.7 53 318.7 53.5V81.4Z" fill="#C59F64"/>
<path d="M334.2 51.2C334.8 51.2 335.5 51.2 336.3 51.2C337.1 51.2 337.9 51.3 338.7 51.4C339.5 51.5 340.4 51.6 341.3 51.8C342.2 52 343 52.3 343.8 52.7V40C343.8 39.2 344 38.6 344.5 38.3C345 38 345.6 37.9 346.4 37.9C346.9 37.9 347.5 37.9 348.2 38C348.9 38.1 349.5 38.2 350.2 38.4C350.8 38.6 351.3 38.9 351.7 39.3C352.1 39.7 352.3 40.2 352.3 40.8V78C352.3 78.8 352 79.5 351.5 80.1C350.9 80.7 350.2 81.2 349.3 81.6C348.4 82 347.3 82.4 346 82.6C344.8 82.9 343.5 83.1 342.1 83.2C340.7 83.3 339.4 83.4 338 83.5C336.6 83.6 335.3 83.6 334 83.6C331.6 83.6 329.7 83.2 328.2 82.3C326.7 81.5 325.5 80.3 324.7 78.8C323.8 77.3 323.3 75.5 322.9 73.4C322.5 71.3 322.4 69 322.4 66.5V66.2C322.4 64.1 322.6 62.1 322.9 60.3C323.2 58.5 323.8 56.9 324.7 55.5C325.6 54.1 326.8 53.1 328.3 52.3C329.9 51.6 331.9 51.2 334.2 51.2ZM336.5 76.5C338 76.5 339.3 76.4 340.2 76.3C341.1 76.2 341.9 76 342.4 75.9C342.9 75.7 343.3 75.5 343.5 75.3C343.7 75.1 343.8 74.9 343.8 74.6V61.1C343.8 60.7 343.5 60.3 343.1 60.1C342.7 59.8 342.1 59.6 341.4 59.3C340.7 59.1 339.9 58.9 339.1 58.8C338.2 58.7 337.4 58.6 336.5 58.5C335.5 58.4 334.7 58.4 334.1 58.5C333.4 58.6 332.9 58.9 332.5 59.3C332.1 59.7 331.8 60.4 331.6 61.2C331.4 62 331.3 63.1 331.3 64.5L331.2 68.1C331.2 69.5 331.2 70.7 331.3 71.8C331.4 72.8 331.7 73.7 332 74.4C332.3 75.1 332.9 75.6 333.6 76C334.4 76.3 335.3 76.5 336.5 76.5Z" fill="#C59F64"/>
<path fill-rule="evenodd" clip-rule="evenodd" d="M70.3 64.1L61.6 47.8C62.2 47.1 62.5 46.2 62.5 45.3C62.5 44 61.9 42.9 60.9 42.1L65.5 25.9C68.2 25.6 70.4 23.2 70.4 20.4C70.4 17.4 67.9 14.9 64.9 14.9C63.8 14.9 62.8 15.2 61.9 15.8L53 7.79999C53.2 7.29999 53.3 6.79999 53.3 6.29999C53.3 4.09999 51.5 2.40002 49.4 2.40002C47.7 2.40002 46.2 3.49998 45.7 5.09998H28C27.5 3.49998 26 2.29999 24.2 2.29999C22.4 2.29999 20.9 3.49998 20.4 5.09998H11C10.4 2.69998 8.19998 0.900024 5.59998 0.900024C2.59998 0.900024 0.0999756 3.40002 0.0999756 6.40002C0.0999756 9.10002 2.10001 11.4 4.70001 11.8V28.4C3.10001 28.9 2 30.4 2 32.1C2 33.8 3.10001 35.3 4.70001 35.8V85.2C2.10001 85.7 0.0999756 87.9 0.0999756 90.6C0.0999756 93.6 2.59998 96.1 5.59998 96.1C7.89998 96.1 10 94.6 10.7 92.6H36.3C36.9 94 38.3 95 39.9 95C41.5 95 42.9 94 43.5 92.6H53C53.8 94.7 55.8 96.2 58.2 96.2C61.2 96.2 63.7 93.7 63.7 90.7C63.7 89.2 63.1 87.9 62.1 86.9L70.1 72.1C70.1 72.1 70.1 72.1 70.2 72.1C72.4 72.1 74.1 70.3 74.1 68.2C74.2 65.9 72.5 64.1 70.3 64.1ZM66.3 67.3L40.7 71.1C40.5 70.5 40.2 69.9 39.8 69.4L57.4 48.9C57.8 49 58.2 49.1 58.6 49.1C58.9 49.1 59.2 49.1 59.5 49L67.9 64.8C67.1 65.4 66.5 66.3 66.3 67.3ZM36.1 90H11.1C11.1 89.8 11.1 89.6 11 89.4L31.6 76.7C32.6 77.6 33.9 78.2 35.4 78.2L37.8 87.6C36.9 88.2 36.3 89.1 36.1 90ZM11 7.40002H20.4C21 8.90002 22.4 9.90002 24.1 9.90002L31.5 31.9C30.2 32.5 29.2 33.5 28.7 34.8L9.79999 31.2C9.49999 29.8 8.50001 28.6 7.20001 28.2V11.4C9.10001 11 10.5 9.40002 11 7.40002ZM63 25.6L58.6 41.3C57.3 41.3 56.2 41.9 55.5 42.8C51.6 41.6 45.2 39.5 39.2 37.7C39.2 37.5 39.2 37.3 39.2 37.1C39.2 35.4 38.5 33.9 37.3 32.9L48.9 10.2C49 10.2 49.1 10.2 49.2 10.2C49.9 10.2 50.6 9.99998 51.2 9.59998L60 17.5C59.5 18.3 59.2 19.3 59.2 20.3C59.4 22.8 60.9 24.8 63 25.6ZM37.9 67.9C37.5 67.7 37.1 67.5 36.6 67.5L36 42C37 41.6 37.8 40.9 38.4 40C46.9 42.7 51.8 44.3 54.7 45.2C54.7 46 55 46.8 55.4 47.4L37.9 67.9ZM9.70001 86.9L32.5 42.3C32.8 42.4 33.2 42.4 33.5 42.4L34.1 67.3C31.7 67.9 29.9 70.1 29.9 72.7C29.9 73.4 30 74 30.2 74.6L9.90002 87.1C9.90002 87.1 9.80001 87 9.70001 86.9ZM46.7 9.09998L35.2 31.6C34.8 31.5 34.4 31.4 34 31.4L26.5 9.09998C27.1 8.69998 27.5 8.10002 27.8 7.40002H45.6C45.8 8.10002 46.2 8.69998 46.7 9.09998ZM9.40002 33.8L28.3 37.4C28.4 39 29.2 40.3 30.3 41.3L7.70001 85.5C7.50001 85.4 7.40001 85.4 7.20001 85.3V35.7C8.10001 35.4 8.90002 34.7 9.40002 33.8ZM60 85.4C59.4 85.2 58.8 85.1 58.2 85.1C55.4 85.1 53 87.3 52.7 90H43.8C43.4 88.4 42 87.1 40.2 87L37.9 77.7C39.5 76.9 40.7 75.4 40.9 73.6L66.7 69.7C67 70.2 67.3 70.6 67.8 71L60 85.4Z" fill="#C59F64"/>
</svg>
